# xmcd CD database file generated by libcdaudio 0.99.1
# 
# Track frame offsets:
#       150
#       20497
#       57538
#       84566
#       112734
#       134384
#       157625
#       169022
#       195681
#       216726
# 
# Disc length: 3140 seconds
# 
# Revision: 1
# Processed by: cddbd v1.4PL0 Copyright (c) Steve Scherf et al.
# Submitted via: libcdaudio 0.99.1
# 
DISCID=840c420a
DTITLE=Salsa Picante - Atlantic Jazz Festival 2003 as seen by Du Maurie
DTITLE=r Jazz
DYEAR=1900
DGENRE=
TTITLE0=Streets of my Home Town
TTITLE1=You Stepped
TTITLE2=Still in Love
TTITLE3=Isabeau s'y Promene
TTITLE4=Goodbye People's Lunch
TTITLE5=Fun Stuff
TTITLE6=Jim's Tune G13
TTITLE7=Free Delivery
TTITLE8=Bassix
TTITLE9=Bring the Funk 2 U
EXTD=
EXTT0=
EXTT1=
EXTT2=
EXTT3=
EXTT4=
EXTT5=
EXTT6=
EXTT7=
EXTT8=
EXTT9=
PLAYORDER=
